<svg xmlns="http://www.w3.org/2000/svg" width="58" height="58" viewBox="0 0 58 58">
  <g id="icon-phone" transform="translate(-1251 -1293)">
    <circle id="Ellipse_12" data-name="Ellipse 12" cx="29" cy="29" r="29" transform="translate(1251 1293)" fill="#00bbb4"/>
    <path id="Icon_awesome-phone-alt" data-name="Icon awesome-phone-alt" d="M24.287,17.666l-5.469-2.344a1.172,1.172,0,0,0-1.367.337l-2.422,2.959A18.1,18.1,0,0,1,6.377,9.967L9.336,7.545a1.169,1.169,0,0,0,.337-1.367L7.329.709A1.18,1.18,0,0,0,5.986.03L.908,1.2A1.172,1.172,0,0,0,0,2.344,22.654,22.654,0,0,0,22.657,25a1.172,1.172,0,0,0,1.143-.908l1.172-5.078A1.186,1.186,0,0,0,24.287,17.666Z" transform="translate(1267.5 1309.5)" fill="#fff" stroke="#fff" stroke-width="1"/>
  </g>
</svg>
