<svg xmlns="http://www.w3.org/2000/svg" xmlns:xlink="http://www.w3.org/1999/xlink" width="300" height="66.974" viewBox="0 0 300 66.974">
  <defs>
    <clipPath id="clip-path">
      <rect id="Rectangle_292" data-name="Rectangle 292" width="300" height="66.974" fill="#fff"/>
    </clipPath>
  </defs>
  <g id="Group_862" data-name="Group 862" transform="translate(0 0)">
    <rect id="Rectangle_288" data-name="Rectangle 288" width="4.685" height="25.228" transform="translate(84.882 13.025)" fill="#fff"/>
    <g id="Group_558" data-name="Group 558" transform="translate(0 0)">
      <g id="Group_557" data-name="Group 557" clip-path="url(#clip-path)">
        <path id="Path_1" data-name="Path 1" d="M84.88,11.506h4.7V36.814h-4.7Zm3.579,15.4.072-3.615h13.486a5.213,5.213,0,0,0,3.561-1.048,3.679,3.679,0,0,0,1.175-2.892v-.072a3.562,3.562,0,0,0-1.283-2.947,5.543,5.543,0,0,0-3.561-1.03H88.568v-3.8H102.09a12.6,12.6,0,0,1,4.935.868,6.849,6.849,0,0,1,3.145,2.549,7.184,7.184,0,0,1,1.1,4.031v.217a6.888,6.888,0,0,1-2.531,5.731,11.142,11.142,0,0,1-7.086,2.007Zm19.27,9.906a1.22,1.22,0,0,1-.127-.145.359.359,0,0,0-.127-.108,10.384,10.384,0,0,1-1.012-2.1,14.524,14.524,0,0,1-.578-2.929v-.181A8.147,8.147,0,0,0,105.2,28.9a3.465,3.465,0,0,0-1.428-1.482,5.112,5.112,0,0,0-2.621-.506l4.266-1.7a4.745,4.745,0,0,1,2.712.669,3.613,3.613,0,0,1,1.374,1.7,13.129,13.129,0,0,1,.651,2.585,2.446,2.446,0,0,1,.054.307,2.7,2.7,0,0,1,.018.307q.144,1.085.362,2.007a10.2,10.2,0,0,0,.542,1.681,12.614,12.614,0,0,0,.651,1.265,6.253,6.253,0,0,0,.8,1.085Z" transform="translate(11.02 1.494)" fill="#fff"/>
        <path id="Path_2" data-name="Path 2" d="M127.246,37.217a19.158,19.158,0,0,1-8.316-1.627,11.7,11.7,0,0,1-5.134-4.5,12.511,12.511,0,0,1-1.735-6.6v-.253a12.7,12.7,0,0,1,2.025-6.652,13.262,13.262,0,0,1,5.369-4.682,17.68,17.68,0,0,1,7.972-1.717h.181a19.593,19.593,0,0,1,8.551,1.681,11.953,11.953,0,0,1,5.224,4.555,12.378,12.378,0,0,1,1.735,6.526v.289a12.512,12.512,0,0,1-1.844,6.779,12.141,12.141,0,0,1-5.351,4.574,19.9,19.9,0,0,1-8.424,1.627Zm.289-4.266a13.876,13.876,0,0,0,6-1.157,8.021,8.021,0,0,0,3.579-3.109,8.413,8.413,0,0,0,1.157-4.375v-.181A8.365,8.365,0,0,0,137.1,19.7a7.981,7.981,0,0,0-3.579-3.055,14.148,14.148,0,0,0-5.984-1.121,13.883,13.883,0,0,0-5.712,1.085,8.251,8.251,0,0,0-3.688,3.055,8.436,8.436,0,0,0-1.3,4.537v.145a8.752,8.752,0,0,0,1.1,4.447,7.577,7.577,0,0,0,3.489,3.037,14.421,14.421,0,0,0,6.11,1.121" transform="translate(14.549 1.452)" fill="#fff"/>
        <path id="Path_3" data-name="Path 3" d="M144.033,36.815V11.506h4.122L167.533,30.6l-.4.434V11.506h4.448V36.815H167.6l-19.45-19.307.325-.434v19.74Z" transform="translate(18.7 1.494)" fill="#fff"/>
        <path id="Path_4" data-name="Path 4" d="M173.936,36.815V11.506h4.7l13.45,20.066h-1.229L204.2,11.506h4.7V36.815h-4.447v-20.1l.832.615L192.3,36.815h-1.735L177.551,17.4l.832-.687v20.1Z" transform="translate(22.583 1.494)" fill="#fff"/>
        <path id="Path_5" data-name="Path 5" d="M208.42,36.814l13.088-25.307h6.616l13.2,25.307H236.4l-3.65-6.869,1.626,1.194h-19.2l1.808-1.157L213.3,36.814Zm9.111-8.532-1.194-1.012h16.848l-1.085.977-6.616-12.907h-1.338Z" transform="translate(27.06 1.494)" fill="#fff"/>
        <path id="Path_6" data-name="Path 6" d="M241.142,36.815V11.506h4.122L264.643,30.6l-.4.434V11.506h4.447V36.815h-3.977L245.264,17.508l.325-.434v19.74Z" transform="translate(31.308 1.494)" fill="#fff"/>
        <path id="Path_7" data-name="Path 7" d="M78.793,49.247a7.513,7.513,0,0,1-3.178-.615,4.6,4.6,0,0,1-2.033-1.743,4.852,4.852,0,0,1-.706-2.628v-.155a5.107,5.107,0,0,1,.811-2.592,5.031,5.031,0,0,1,2.1-1.786,7.327,7.327,0,0,1,3.193-.65,7.712,7.712,0,0,1,3.036.537,4.882,4.882,0,0,1,2.005,1.512l-1.455,1.016a3.2,3.2,0,0,0-1.4-1.044,6.064,6.064,0,0,0-2.238-.354,5.406,5.406,0,0,0-2.161.409,3.34,3.34,0,0,0-1.476,1.187,3.251,3.251,0,0,0-.543,1.836v.056a3.346,3.346,0,0,0,.487,1.772,3.05,3.05,0,0,0,1.4,1.166,5.705,5.705,0,0,0,2.289.409,5.961,5.961,0,0,0,2.252-.374,3.382,3.382,0,0,0,1.434-1.052l1.455,1A4.885,4.885,0,0,1,81.985,48.7a8.321,8.321,0,0,1-3.192.545" transform="translate(9.462 5.074)" fill="#fff"/>
        <path id="Path_8" data-name="Path 8" d="M87.691,48.986a4.7,4.7,0,0,1-1.666-.268,2.415,2.415,0,0,1-1.087-.764,1.832,1.832,0,0,1-.382-1.157v-.043a2.076,2.076,0,0,1,.876-1.708,4.723,4.723,0,0,1,2.712-.749l3.742-.183.086.846-3.743.41a2.851,2.851,0,0,0-1.306.41.929.929,0,0,0-.445.79.968.968,0,0,0,.452.9,2.478,2.478,0,0,0,1.285.276,4.637,4.637,0,0,0,1.5-.254,3.671,3.671,0,0,0,1.278-.728,1.9,1.9,0,0,0,.643-1.08l.621.141a3.517,3.517,0,0,1-.834,1.695,4.187,4.187,0,0,1-1.6,1.088,5.543,5.543,0,0,1-2.063.381Zm4.1-.141L91.632,47.4V43.718a.983.983,0,0,0-.319-.784,1.646,1.646,0,0,0-.826-.359,7.825,7.825,0,0,0-1.256-.085h-.085a12.7,12.7,0,0,0-1.829.156,13.787,13.787,0,0,0-1.787.366l-.424-1.243a13.7,13.7,0,0,1,2.183-.5,16.011,16.011,0,0,1,2.394-.176,5.386,5.386,0,0,1,2.732.585,2.144,2.144,0,0,1,.982,2.04v5.127Z" transform="translate(10.978 5.335)" fill="#fff"/>
        <path id="Path_9" data-name="Path 9" d="M94.927,51.472V41.233h1.6L96.692,43v8.474Zm5.309-2.486a5.481,5.481,0,0,1-2.373-.495,3.894,3.894,0,0,1-1.63-1.384,3.559,3.559,0,0,1-.586-2.005v-.127a3.564,3.564,0,0,1,.586-2.005,3.91,3.91,0,0,1,1.624-1.384,5.5,5.5,0,0,1,2.394-.494,5.3,5.3,0,0,1,2.379.507,3.858,3.858,0,0,1,1.582,1.385,3.591,3.591,0,0,1,.558,1.976v.184a3.561,3.561,0,0,1-.572,1.991,3.821,3.821,0,0,1-1.6,1.364,5.453,5.453,0,0,1-2.366.487m-.381-1.412a4.077,4.077,0,0,0,1.652-.311,2.484,2.484,0,0,0,1.088-.869,2.282,2.282,0,0,0,.382-1.32v-.043a2.3,2.3,0,0,0-.382-1.306,2.5,2.5,0,0,0-1.088-.89,4.5,4.5,0,0,0-3.3-.007,2.532,2.532,0,0,0-1.116.882,2.216,2.216,0,0,0-.4,1.293v.071a2.152,2.152,0,0,0,.409,1.306,2.748,2.748,0,0,0,1.123.876,3.98,3.98,0,0,0,1.631.317" transform="translate(12.325 5.335)" fill="#fff"/>
        <path id="Path_10" data-name="Path 10" d="M105.808,38.728h1.878v1.709h-1.878Zm.056,2.811h1.765v7.612h-1.765Z" transform="translate(13.737 5.028)" fill="#fff"/>
        <path id="Path_11" data-name="Path 11" d="M113.828,49.233a3.09,3.09,0,0,1-1.348-.268,1.821,1.821,0,0,1-.847-.827,2.961,2.961,0,0,1-.29-1.377V41.974l.819.819h-2.838V41.48a4.226,4.226,0,0,0,1.511-.219,1.084,1.084,0,0,0,.621-.643,7.094,7.094,0,0,0,.269-1.427h1.271V42.3l-.819-.818h4.039v1.341h-4.039l.819-.819v4.576a1.406,1.406,0,0,0,.183.791.951.951,0,0,0,.53.374,3.114,3.114,0,0,0,.9.106,7.089,7.089,0,0,0,.8-.05q.444-.049.643-.092l.169,1.215q-.524.127-1.18.219a8.8,8.8,0,0,1-1.208.092" transform="translate(14.194 5.088)" fill="#fff"/>
        <path id="Path_12" data-name="Path 12" d="M120.179,48.986a4.7,4.7,0,0,1-1.667-.268,2.415,2.415,0,0,1-1.087-.764,1.832,1.832,0,0,1-.382-1.157v-.043a2.076,2.076,0,0,1,.876-1.708,4.723,4.723,0,0,1,2.712-.749l3.742-.183.086.846-3.743.41a2.851,2.851,0,0,0-1.306.41.929.929,0,0,0-.445.79.968.968,0,0,0,.452.9,2.478,2.478,0,0,0,1.285.276,4.637,4.637,0,0,0,1.5-.254,3.671,3.671,0,0,0,1.278-.728,1.9,1.9,0,0,0,.643-1.08l.621.141a3.517,3.517,0,0,1-.834,1.695,4.187,4.187,0,0,1-1.6,1.088,5.543,5.543,0,0,1-2.063.381Zm4.1-.141L124.12,47.4V43.718a.983.983,0,0,0-.319-.784,1.646,1.646,0,0,0-.826-.359,7.825,7.825,0,0,0-1.256-.085h-.085a12.7,12.7,0,0,0-1.829.156,13.787,13.787,0,0,0-1.787.366l-.424-1.243a13.7,13.7,0,0,1,2.183-.5,16.011,16.011,0,0,1,2.394-.176,5.386,5.386,0,0,1,2.732.585,2.144,2.144,0,0,1,.982,2.04v5.127Z" transform="translate(15.196 5.335)" fill="#fff"/>
        <rect id="Rectangle_289" data-name="Rectangle 289" width="1.765" height="10.423" transform="translate(143.955 43.756)" fill="#fff"/>
        <path id="Path_13" data-name="Path 13" d="M135.639,39.2h1.836V49.09h-1.836Zm1.439,6.454.028-1.426h5.141a1.967,1.967,0,0,0,1.412-.473,1.706,1.706,0,0,0,.494-1.293v-.028a1.648,1.648,0,0,0-.508-1.3,1.964,1.964,0,0,0-1.356-.452h-5.168V39.2h5.3a4.108,4.108,0,0,1,1.843.388,2.783,2.783,0,0,1,1.2,1.109,3.352,3.352,0,0,1,.418,1.708v.085a3.366,3.366,0,0,1-.409,1.708,2.669,2.669,0,0,1-1.208,1.081,4.443,4.443,0,0,1-1.9.374Z" transform="translate(17.61 5.09)" fill="#fff"/>
        <path id="Path_14" data-name="Path 14" d="M149.473,48.986a4.7,4.7,0,0,1-1.668-.268,2.412,2.412,0,0,1-1.086-.764,1.832,1.832,0,0,1-.382-1.157v-.043a2.076,2.076,0,0,1,.876-1.708,4.719,4.719,0,0,1,2.71-.749l3.743-.183.085.846-3.742.41a2.861,2.861,0,0,0-1.307.41.931.931,0,0,0-.444.79.968.968,0,0,0,.452.9,2.478,2.478,0,0,0,1.285.276,4.625,4.625,0,0,0,1.5-.254,3.666,3.666,0,0,0,1.279-.728,1.9,1.9,0,0,0,.642-1.08l.621.141a3.505,3.505,0,0,1-.833,1.695,4.187,4.187,0,0,1-1.6,1.088,5.548,5.548,0,0,1-2.063.381Zm4.1-.141-.156-1.441V43.718a.982.982,0,0,0-.317-.784,1.65,1.65,0,0,0-.826-.359,7.83,7.83,0,0,0-1.258-.085h-.085a12.688,12.688,0,0,0-1.828.156,13.747,13.747,0,0,0-1.787.366l-.424-1.243a13.675,13.675,0,0,1,2.183-.5,16.011,16.011,0,0,1,2.394-.176,5.389,5.389,0,0,1,2.732.585,2.144,2.144,0,0,1,.982,2.04v5.127Z" transform="translate(19 5.335)" fill="#fff"/>
        <path id="Path_15" data-name="Path 15" d="M156.676,44.34V41.233h1.6l.169,2.26v.847Zm0-.141h1.765v4.646h-1.765Zm1.4-.608a2.2,2.2,0,0,1,.629-1.278,3.629,3.629,0,0,1,1.5-.9,6.946,6.946,0,0,1,2.23-.324v1.75L162,42.8a5.118,5.118,0,0,0-1.992.163,2.234,2.234,0,0,0-1.194.818,2.178,2.178,0,0,0-.374,1.321h-.1Z" transform="translate(20.342 5.335)" fill="#fff"/>
        <path id="Path_16" data-name="Path 16" d="M168.027,49.233a3.09,3.09,0,0,1-1.348-.268,1.822,1.822,0,0,1-.847-.827,2.961,2.961,0,0,1-.289-1.377V41.974l.818.819h-2.838V41.48a4.233,4.233,0,0,0,1.512-.219,1.085,1.085,0,0,0,.62-.643,7.1,7.1,0,0,0,.269-1.427h1.271V42.3l-.819-.818h4.039v1.341h-4.039l.819-.819v4.576a1.4,1.4,0,0,0,.184.791.945.945,0,0,0,.529.374,3.119,3.119,0,0,0,.9.106,7.075,7.075,0,0,0,.8-.05q.444-.049.643-.092l.169,1.215q-.522.127-1.18.219a8.8,8.8,0,0,1-1.208.092" transform="translate(21.231 5.088)" fill="#fff"/>
        <path id="Path_17" data-name="Path 17" d="M171.657,44.339V41.232h1.6l.171,2.26v.847Zm0-.141h1.765v4.646h-1.765Zm7.061.367a2.343,2.343,0,0,0-.262-1.151,1.65,1.65,0,0,0-.791-.713,3.17,3.17,0,0,0-1.306-.24,3.674,3.674,0,0,0-1.525.282,2.543,2.543,0,0,0-.96.706,2.315,2.315,0,0,0-.451.847l-.777-.467a4.659,4.659,0,0,1,.9-1.391,4.209,4.209,0,0,1,1.412-.982,4.752,4.752,0,0,1,1.914-.367h.1a4.561,4.561,0,0,1,1.914.367,2.617,2.617,0,0,1,1.208,1.073,3.229,3.229,0,0,1,.4,1.695v4.619h-1.765Z" transform="translate(22.287 5.335)" fill="#fff"/>
        <path id="Path_18" data-name="Path 18" d="M186.4,48.986a5.593,5.593,0,0,1-2.55-.545,3.977,3.977,0,0,1-1.638-1.433,3.5,3.5,0,0,1-.557-1.892v-.128a3.655,3.655,0,0,1,.55-1.963,3.829,3.829,0,0,1,1.6-1.412,5.479,5.479,0,0,1,2.464-.522,5.147,5.147,0,0,1,2.429.536,3.8,3.8,0,0,1,1.553,1.455,3.965,3.965,0,0,1,.537,2.034v.367h-7.881l.452-.467a2.3,2.3,0,0,0,.354,1.377,2.451,2.451,0,0,0,1.087.9,3.91,3.91,0,0,0,1.624.319,4.73,4.73,0,0,0,1.645-.269,3.058,3.058,0,0,0,1.236-.834l1.13.862a4.407,4.407,0,0,1-1.751,1.229,6.4,6.4,0,0,1-2.287.381m-3.065-4.124-.438-.58H189.6l-.565.565a2.392,2.392,0,0,0-.262-1.221,2.139,2.139,0,0,0-.924-.9,3.414,3.414,0,0,0-1.61-.339,3.549,3.549,0,0,0-1.561.319,2.291,2.291,0,0,0-1,.882,2.517,2.517,0,0,0-.353,1.271" transform="translate(23.584 5.335)" fill="#fff"/>
        <path id="Path_19" data-name="Path 19" d="M191.981,44.34V41.233h1.6l.169,2.26v.847Zm0-.141h1.765v4.646h-1.765Zm1.4-.608a2.2,2.2,0,0,1,.629-1.278,3.629,3.629,0,0,1,1.5-.9,6.945,6.945,0,0,1,2.23-.324v1.75l-.436-.042a5.118,5.118,0,0,0-1.992.163,2.234,2.234,0,0,0-1.194.818,2.178,2.178,0,0,0-.374,1.321h-.1Z" transform="translate(24.925 5.335)" fill="#fff"/>
        <path id="Path_20" data-name="Path 20" d="M202.785,48.986a10.319,10.319,0,0,1-2.522-.3,6.049,6.049,0,0,1-2.012-.869l.9-1.087a5.747,5.747,0,0,0,1.668.685,7.7,7.7,0,0,0,2,.234,3.984,3.984,0,0,0,1.668-.255.779.779,0,0,0,.508-.706.578.578,0,0,0-.312-.494,2.631,2.631,0,0,0-.826-.317q-.515-.12-1.25-.233a18.784,18.784,0,0,1-1.984-.4,3.768,3.768,0,0,1-1.349-.65,1.4,1.4,0,0,1-.565-1.172V43.28a1.722,1.722,0,0,1,.465-1.158,2.9,2.9,0,0,1,1.265-.763,6.064,6.064,0,0,1,1.9-.268h.325a7.982,7.982,0,0,1,2.175.282,5.266,5.266,0,0,1,1.638.734l-.96,1.03a4.4,4.4,0,0,0-1.441-.551,8.66,8.66,0,0,0-1.921-.168,3.309,3.309,0,0,0-1.412.226.689.689,0,0,0-.452.621.524.524,0,0,0,.3.459,2.77,2.77,0,0,0,.8.289q.508.114,1.186.226,1.229.2,2.019.4a4.158,4.158,0,0,1,1.385.628,1.466,1.466,0,0,1,.648,1.116v.254a1.869,1.869,0,0,1-.472,1.3,2.874,2.874,0,0,1-1.335.783,7.059,7.059,0,0,1-2.047.262" transform="translate(25.74 5.335)" fill="#fff"/>
        <rect id="Rectangle_290" data-name="Rectangle 290" width="9.799" height="41.39" transform="translate(42.461 12.792)" fill="#00bbb4"/>
        <rect id="Rectangle_291" data-name="Rectangle 291" width="9.799" height="41.39" transform="translate(0 12.792)" fill="#00bbb4"/>
        <path id="Path_21" data-name="Path 21" d="M23.879,30.5l6.532-6.532V0H17.346V23.963Z" transform="translate(2.252 0)" fill="#00bbb4"/>
        <path id="Path_22" data-name="Path 22" d="M23.879,35.6l-6.533-6.533V63.2H30.41V29.082Z" transform="translate(2.252 3.774)" fill="#00bbb4"/>
      </g>
    </g>
  </g>
</svg>
