<svg id="Group_583" data-name="Group 583" xmlns="http://www.w3.org/2000/svg" xmlns:xlink="http://www.w3.org/1999/xlink" width="272.155" height="193.958" viewBox="0 0 272.155 193.958">
  <defs>
    <clipPath id="clip-path">
      <rect id="Rectangle_348" data-name="Rectangle 348" width="272.155" height="193.958" fill="#fff"/>
    </clipPath>
  </defs>
  <rect id="Rectangle_344" data-name="Rectangle 344" width="5.939" height="31.979" transform="translate(0 138.343)" fill="#fff"/>
  <g id="Group_582" data-name="Group 582">
    <g id="Group_581" data-name="Group 581" clip-path="url(#clip-path)">
      <path id="Path_23" data-name="Path 23" d="M8.877,87.813h5.939v31.981H8.877ZM13.4,107.277l.091-4.57H30.533a6.592,6.592,0,0,0,4.5-1.325,4.652,4.652,0,0,0,1.484-3.655v-.09A4.505,4.505,0,0,0,34.9,93.911a7.01,7.01,0,0,0-4.5-1.3H13.537v-4.8H30.624a15.962,15.962,0,0,1,6.237,1.1,8.671,8.671,0,0,1,3.975,3.22,9.1,9.1,0,0,1,1.393,5.095V97.5a8.7,8.7,0,0,1-3.2,7.239q-3.2,2.538-8.955,2.538Zm24.351,12.517a1.689,1.689,0,0,1-.161-.183.452.452,0,0,0-.159-.137,13.155,13.155,0,0,1-1.279-2.65,18.339,18.339,0,0,1-.731-3.7v-.23a10.3,10.3,0,0,0-.868-3.107,4.36,4.36,0,0,0-1.8-1.873,6.452,6.452,0,0,0-3.313-.638l5.391-2.149a6.008,6.008,0,0,1,3.427.844,4.578,4.578,0,0,1,1.736,2.149,16.576,16.576,0,0,1,.822,3.266,2.9,2.9,0,0,1,.068.389,3.4,3.4,0,0,1,.024.388q.182,1.371.457,2.536a12.87,12.87,0,0,0,.685,2.124,15.621,15.621,0,0,0,.822,1.6,7.9,7.9,0,0,0,1.005,1.371Z" transform="translate(5.108 50.528)" fill="#fff"/>
      <path id="Path_24" data-name="Path 24" d="M52.73,120.417a24.2,24.2,0,0,1-10.508-2.056,14.779,14.779,0,0,1-6.488-5.687,15.816,15.816,0,0,1-2.193-8.339v-.32A16.051,16.051,0,0,1,36.1,95.61a16.734,16.734,0,0,1,6.784-5.916,22.346,22.346,0,0,1,10.075-2.171h.228a24.749,24.749,0,0,1,10.806,2.125,15.1,15.1,0,0,1,6.6,5.757,15.635,15.635,0,0,1,2.193,8.246v.365a15.8,15.8,0,0,1-2.33,8.565,15.343,15.343,0,0,1-6.762,5.78,25.139,25.139,0,0,1-10.645,2.056Zm.365-5.391a17.529,17.529,0,0,0,7.584-1.462,10.145,10.145,0,0,0,4.523-3.929,10.649,10.649,0,0,0,1.462-5.528v-.228a10.575,10.575,0,0,0-1.486-5.6,10.084,10.084,0,0,0-4.523-3.86,17.875,17.875,0,0,0-7.56-1.416,17.538,17.538,0,0,0-7.219,1.371,10.4,10.4,0,0,0-4.66,3.861,10.649,10.649,0,0,0-1.645,5.733v.183a11.059,11.059,0,0,0,1.393,5.619,9.588,9.588,0,0,0,4.41,3.839,18.245,18.245,0,0,0,7.721,1.415" transform="translate(19.3 50.361)" fill="#fff"/>
      <path id="Path_25" data-name="Path 25" d="M62.547,119.794V87.813h5.208l24.488,24.124-.5.547V87.813H97.36v31.981H92.336L67.755,95.4l.411-.55v24.945Z" transform="translate(35.99 50.528)" fill="#fff"/>
      <path id="Path_26" data-name="Path 26" d="M89.679,119.794V87.813H95.62l17,25.356h-1.555l16.858-25.356h5.939v31.981H128.24v-25.4l1.051.777-16.4,24.625H110.7L94.248,95.26l1.051-.868v25.4Z" transform="translate(51.602 50.528)" fill="#fff"/>
      <path id="Path_27" data-name="Path 27" d="M120.963,119.794,137.5,87.813h8.362l16.676,31.981h-6.213l-4.614-8.68,2.056,1.508h-24.26l2.283-1.462-4.658,8.635Zm11.515-10.782-1.508-1.279h21.29l-1.371,1.234-8.361-16.31h-1.69Z" transform="translate(69.603 50.528)" fill="#fff"/>
      <path id="Path_28" data-name="Path 28" d="M150.654,119.794V87.813h5.21l24.488,24.124-.5.547V87.813h5.621v31.981h-5.027L155.864,95.4l.41-.55v24.945Z" transform="translate(86.687 50.528)" fill="#fff"/>
      <path id="Path_29" data-name="Path 29" d="M34.7,125.736a9.2,9.2,0,0,1-3.9-.755,5.635,5.635,0,0,1-2.5-2.139,5.948,5.948,0,0,1-.866-3.223v-.191a6.263,6.263,0,0,1,1-3.181,6.19,6.19,0,0,1,2.574-2.191,8.978,8.978,0,0,1,3.915-.8,9.493,9.493,0,0,1,3.727.659,5.99,5.99,0,0,1,2.461,1.856l-1.785,1.248a3.951,3.951,0,0,0-1.725-1.284,7.466,7.466,0,0,0-2.746-.433,6.605,6.605,0,0,0-2.651.5,4.105,4.105,0,0,0-1.812,1.456,4,4,0,0,0-.666,2.254v.069a4.1,4.1,0,0,0,.6,2.172,3.742,3.742,0,0,0,1.725,1.432,6.992,6.992,0,0,0,2.807.5,7.321,7.321,0,0,0,2.765-.458,4.176,4.176,0,0,0,1.758-1.29l1.785,1.229a5.992,5.992,0,0,1-2.547,1.9,10.252,10.252,0,0,1-3.916.666" transform="translate(15.79 65.17)" fill="#fff"/>
      <path id="Path_30" data-name="Path 30" d="M41.644,124.717a5.721,5.721,0,0,1-2.045-.329,2.958,2.958,0,0,1-1.334-.934,2.261,2.261,0,0,1-.468-1.423v-.05a2.548,2.548,0,0,1,1.074-2.1,5.779,5.779,0,0,1,3.327-.918l4.592-.227.1,1.041-4.592.5a3.525,3.525,0,0,0-1.6.5,1.149,1.149,0,0,0-.545.972,1.191,1.191,0,0,0,.555,1.1,3.063,3.063,0,0,0,1.577.337,5.649,5.649,0,0,0,1.837-.314,4.469,4.469,0,0,0,1.568-.892,2.33,2.33,0,0,0,.789-1.325l.762.172a4.307,4.307,0,0,1-1.022,2.081,5.127,5.127,0,0,1-1.958,1.334,6.794,6.794,0,0,1-2.53.466Zm5.026-.172-.191-1.768v-4.523a1.206,1.206,0,0,0-.391-.963,2.015,2.015,0,0,0-1.013-.441,9.432,9.432,0,0,0-1.542-.1h-.1a15.559,15.559,0,0,0-2.243.191,17.057,17.057,0,0,0-2.193.451l-.52-1.527a16.723,16.723,0,0,1,2.678-.613,19.723,19.723,0,0,1,2.937-.217,6.625,6.625,0,0,1,3.354.718,2.637,2.637,0,0,1,1.2,2.5v6.291Z" transform="translate(21.749 66.19)" fill="#fff"/>
      <path id="Path_31" data-name="Path 31" d="M47,127.768V115.2h1.958l.208,2.166v10.4Zm6.516-3.05a6.715,6.715,0,0,1-2.911-.607,4.781,4.781,0,0,1-2-1.7,4.379,4.379,0,0,1-.718-2.461V119.8a4.375,4.375,0,0,1,.718-2.461,4.792,4.792,0,0,1,1.993-1.7,6.753,6.753,0,0,1,2.938-.607,6.485,6.485,0,0,1,2.919.624,4.731,4.731,0,0,1,1.941,1.7,4.416,4.416,0,0,1,.685,2.426V120a4.368,4.368,0,0,1-.7,2.443,4.672,4.672,0,0,1-1.958,1.673,6.678,6.678,0,0,1-2.9.6m-.468-1.733a5.012,5.012,0,0,0,2.028-.381,3.059,3.059,0,0,0,1.334-1.067,2.8,2.8,0,0,0,.468-1.62v-.052a2.822,2.822,0,0,0-.468-1.6,3.064,3.064,0,0,0-1.334-1.092,5.518,5.518,0,0,0-4.055-.009,3.117,3.117,0,0,0-1.369,1.082,2.729,2.729,0,0,0-.485,1.586v.087a2.63,2.63,0,0,0,.5,1.6,3.355,3.355,0,0,0,1.377,1.076,4.877,4.877,0,0,0,2,.389" transform="translate(27.046 66.19)" fill="#fff"/>
      <path id="Path_32" data-name="Path 32" d="M56.658,112.952h2.3v2.1h-2.3Zm.069,3.447h2.166v9.342H56.727Z" transform="translate(32.601 64.993)" fill="#fff"/>
      <path id="Path_33" data-name="Path 33" d="M65.356,125.679a3.768,3.768,0,0,1-1.654-.329,2.223,2.223,0,0,1-1.04-1.015,3.616,3.616,0,0,1-.356-1.689v-5.873l1.005,1H59.828v-1.612a5.143,5.143,0,0,0,1.854-.268,1.337,1.337,0,0,0,.762-.789,8.731,8.731,0,0,0,.329-1.749h1.56v3.812l-1.005-1.007h4.956v1.648H63.329l1.005-1.007v5.616a1.729,1.729,0,0,0,.225.97,1.173,1.173,0,0,0,.651.458,3.892,3.892,0,0,0,1.1.131,9.247,9.247,0,0,0,.98-.061c.364-.041.625-.079.788-.112l.208,1.49q-.64.154-1.448.268a10.9,10.9,0,0,1-1.481.112" transform="translate(34.425 65.228)" fill="#fff"/>
      <path id="Path_34" data-name="Path 34" d="M70.546,124.717a5.733,5.733,0,0,1-2.045-.329,2.958,2.958,0,0,1-1.334-.934,2.261,2.261,0,0,1-.468-1.423v-.05a2.552,2.552,0,0,1,1.074-2.1,5.783,5.783,0,0,1,3.327-.918l4.592-.227.1,1.041-4.591.5a3.506,3.506,0,0,0-1.6.5,1.147,1.147,0,0,0-.547.972,1.194,1.194,0,0,0,.555,1.1,3.059,3.059,0,0,0,1.577.337,5.649,5.649,0,0,0,1.837-.314,4.49,4.49,0,0,0,1.569-.892,2.336,2.336,0,0,0,.788-1.325l.762.172a4.293,4.293,0,0,1-1.022,2.081,5.127,5.127,0,0,1-1.958,1.334,6.788,6.788,0,0,1-2.53.466Zm5.026-.172-.191-1.768v-4.523a1.205,1.205,0,0,0-.389-.963,2.021,2.021,0,0,0-1.015-.441,9.419,9.419,0,0,0-1.542-.1h-.1a15.541,15.541,0,0,0-2.243.191,17.057,17.057,0,0,0-2.193.451l-.52-1.527a16.7,16.7,0,0,1,2.677-.613,19.744,19.744,0,0,1,2.938-.217,6.615,6.615,0,0,1,3.352.718,2.629,2.629,0,0,1,1.205,2.5v6.291Z" transform="translate(38.379 66.19)" fill="#fff"/>
      <rect id="Rectangle_345" data-name="Rectangle 345" width="2.166" height="12.789" transform="translate(119.583 177.945)" fill="#fff"/>
      <path id="Path_35" data-name="Path 35" d="M83.187,113.37h2.254V125.5H83.187Zm1.768,7.92.035-1.75H91.3a2.406,2.406,0,0,0,1.733-.581,2.09,2.09,0,0,0,.608-1.585v-.036a2.027,2.027,0,0,0-.625-1.594,2.412,2.412,0,0,0-1.662-.553H85.007v-1.82h6.5a5.034,5.034,0,0,1,2.262.476,3.409,3.409,0,0,1,1.473,1.361,4.119,4.119,0,0,1,.512,2.1v.1a4.1,4.1,0,0,1-.5,2.1,3.257,3.257,0,0,1-1.481,1.327,5.452,5.452,0,0,1-2.332.46Z" transform="translate(47.866 65.234)" fill="#fff"/>
      <path id="Path_36" data-name="Path 36" d="M96.527,124.717a5.724,5.724,0,0,1-2.043-.329,2.95,2.95,0,0,1-1.334-.934,2.261,2.261,0,0,1-.468-1.423v-.05a2.552,2.552,0,0,1,1.074-2.1,5.783,5.783,0,0,1,3.327-.918l4.592-.227.1,1.041-4.591.5a3.506,3.506,0,0,0-1.6.5,1.144,1.144,0,0,0-.547.972,1.191,1.191,0,0,0,.555,1.1,3.059,3.059,0,0,0,1.577.337,5.649,5.649,0,0,0,1.837-.314,4.49,4.49,0,0,0,1.569-.892,2.336,2.336,0,0,0,.788-1.325l.762.172a4.294,4.294,0,0,1-1.022,2.081,5.127,5.127,0,0,1-1.958,1.334,6.788,6.788,0,0,1-2.53.466Zm5.027-.172-.191-1.768v-4.523a1.205,1.205,0,0,0-.389-.963,2.021,2.021,0,0,0-1.015-.441,9.432,9.432,0,0,0-1.542-.1h-.1a15.578,15.578,0,0,0-2.245.191,17.085,17.085,0,0,0-2.191.451l-.52-1.527a16.7,16.7,0,0,1,2.677-.613,19.744,19.744,0,0,1,2.938-.217,6.615,6.615,0,0,1,3.352.718,2.629,2.629,0,0,1,1.205,2.5v6.291Z" transform="translate(53.329 66.19)" fill="#fff"/>
      <path id="Path_37" data-name="Path 37" d="M101.86,119.017V115.2h1.958l.208,2.774v1.04Zm0-.173h2.166v5.7H101.86Zm1.717-.745a2.715,2.715,0,0,1,.77-1.569,4.472,4.472,0,0,1,1.845-1.1,8.535,8.535,0,0,1,2.738-.4v2.149l-.536-.052a6.261,6.261,0,0,0-2.443.2,2.73,2.73,0,0,0-1.465,1.005,2.671,2.671,0,0,0-.46,1.621h-.12Z" transform="translate(58.611 66.19)" fill="#fff"/>
      <path id="Path_38" data-name="Path 38" d="M113.48,125.679a3.785,3.785,0,0,1-1.656-.329,2.22,2.22,0,0,1-1.038-1.015,3.635,3.635,0,0,1-.356-1.689v-5.873l1.005,1h-3.483v-1.612a5.142,5.142,0,0,0,1.854-.268,1.337,1.337,0,0,0,.762-.789,8.73,8.73,0,0,0,.329-1.749h1.561v3.812l-1.007-1.007h4.956v1.648h-4.956l1.007-1.007v5.616a1.717,1.717,0,0,0,.224.97,1.18,1.18,0,0,0,.649.458,3.916,3.916,0,0,0,1.1.131,9.269,9.269,0,0,0,.978-.061c.364-.041.625-.079.789-.112l.206,1.49c-.427.1-.911.192-1.448.268a10.9,10.9,0,0,1-1.481.112" transform="translate(62.116 65.228)" fill="#fff"/>
      <path id="Path_39" data-name="Path 39" d="M115.187,119.017V115.2h1.958l.208,2.774v1.04Zm0-.173h2.166v5.7h-2.166Zm8.665.451a2.868,2.868,0,0,0-.32-1.412,2.022,2.022,0,0,0-.97-.876,3.872,3.872,0,0,0-1.6-.3,4.518,4.518,0,0,0-1.87.348,3.109,3.109,0,0,0-1.178.866,2.861,2.861,0,0,0-.556,1.04l-.952-.572a5.67,5.67,0,0,1,1.1-1.706,5.141,5.141,0,0,1,1.733-1.205,5.8,5.8,0,0,1,2.349-.451h.121a5.571,5.571,0,0,1,2.347.451,3.2,3.2,0,0,1,1.481,1.317,3.942,3.942,0,0,1,.485,2.078v5.668h-2.166Z" transform="translate(66.279 66.19)" fill="#fff"/>
      <path id="Path_40" data-name="Path 40" d="M129.883,124.717a6.892,6.892,0,0,1-3.129-.666,4.881,4.881,0,0,1-2.009-1.76,4.293,4.293,0,0,1-.685-2.322v-.154a4.49,4.49,0,0,1,.676-2.41,4.686,4.686,0,0,1,1.966-1.731,6.715,6.715,0,0,1,3.025-.643,6.321,6.321,0,0,1,2.981.659,4.7,4.7,0,0,1,1.908,1.785,4.867,4.867,0,0,1,.659,2.5v.451H125.6l.555-.572a2.847,2.847,0,0,0,.433,1.689,3.011,3.011,0,0,0,1.336,1.109,4.779,4.779,0,0,0,1.991.392,5.812,5.812,0,0,0,2.018-.329,3.759,3.759,0,0,0,1.517-1.024l1.386,1.057a5.387,5.387,0,0,1-2.149,1.508,7.857,7.857,0,0,1-2.807.468m-3.761-5.06-.537-.711h8.232l-.693.693a2.908,2.908,0,0,0-.321-1.5,2.61,2.61,0,0,0-1.134-1.1,4.17,4.17,0,0,0-1.974-.416,4.357,4.357,0,0,0-1.916.391,2.8,2.8,0,0,0-1.223,1.084,3.119,3.119,0,0,0-.433,1.558" transform="translate(71.385 66.189)" fill="#fff"/>
      <path id="Path_41" data-name="Path 41" d="M133.23,119.017V115.2h1.958l.208,2.774v1.04Zm0-.173H135.4v5.7H133.23Zm1.717-.745a2.714,2.714,0,0,1,.77-1.569,4.472,4.472,0,0,1,1.845-1.1,8.535,8.535,0,0,1,2.738-.4v2.149l-.536-.052a6.261,6.261,0,0,0-2.443.2,2.73,2.73,0,0,0-1.465,1.005,2.672,2.672,0,0,0-.46,1.621h-.12Z" transform="translate(76.661 66.19)" fill="#fff"/>
      <path id="Path_42" data-name="Path 42" d="M144.389,124.717a12.606,12.606,0,0,1-3.093-.372,7.4,7.4,0,0,1-2.469-1.067l1.109-1.334a6.977,6.977,0,0,0,2.045.84,9.335,9.335,0,0,0,2.459.287,4.89,4.89,0,0,0,2.045-.31.957.957,0,0,0,.624-.868.712.712,0,0,0-.381-.607,3.342,3.342,0,0,0-1.013-.389c-.422-.1-.933-.194-1.534-.287a22.683,22.683,0,0,1-2.434-.485,4.628,4.628,0,0,1-1.656-.8,1.726,1.726,0,0,1-.693-1.438v-.172a2.123,2.123,0,0,1,.572-1.423,3.575,3.575,0,0,1,1.552-.936,7.451,7.451,0,0,1,2.33-.329h.4a9.844,9.844,0,0,1,2.669.347,6.54,6.54,0,0,1,2.012.9l-1.178,1.265a5.4,5.4,0,0,0-1.768-.676,10.639,10.639,0,0,0-2.357-.206,4.1,4.1,0,0,0-1.735.276.849.849,0,0,0-.555.763.645.645,0,0,0,.366.564,3.365,3.365,0,0,0,.988.354q.622.139,1.456.279,1.505.241,2.478.493a5.135,5.135,0,0,1,1.7.77,1.8,1.8,0,0,1,.8,1.369v.314a2.281,2.281,0,0,1-.581,1.593,3.524,3.524,0,0,1-1.637.963,8.712,8.712,0,0,1-2.514.32" transform="translate(79.883 66.189)" fill="#fff"/>
      <rect id="Rectangle_346" data-name="Rectangle 346" width="15.675" height="66.211" transform="translate(162.111 20.465)" fill="#00bbb4"/>
      <rect id="Rectangle_347" data-name="Rectangle 347" width="15.675" height="66.211" transform="translate(94.186 20.465)" fill="#00bbb4"/>
      <path id="Path_43" data-name="Path 43" d="M90.136,48.8l10.45-10.45V0h-20.9V38.334Z" transform="translate(45.851 0)" fill="#00bbb4"/>
      <path id="Path_44" data-name="Path 44" d="M90.136,43.8,79.684,33.352v54.6h20.9V33.37Z" transform="translate(45.851 19.191)" fill="#00bbb4"/>
    </g>
  </g>
</svg>
