<svg id="Group_954" data-name="Group 954" xmlns="http://www.w3.org/2000/svg" width="24" height="24" viewBox="0 0 24 24">
  <g id="Ellipse_85" data-name="Ellipse 85" fill="#00bbb4" stroke="#00bbb4" stroke-width="1">
    <circle cx="12" cy="12" r="12" stroke="none"/>
    <circle cx="12" cy="12" r="11.5" fill="none"/>
  </g>
  <path id="Icon_awesome-phone-alt" data-name="Icon awesome-phone-alt" d="M13.246,9.635,10.263,8.357a.639.639,0,0,0-.746.184L8.2,10.154A9.871,9.871,0,0,1,3.478,5.436L5.092,4.115a.638.638,0,0,0,.184-.746L4,.387a.643.643,0,0,0-.732-.37L.5.656a.639.639,0,0,0-.5.623A12.355,12.355,0,0,0,12.356,13.635a.639.639,0,0,0,.623-.5l.639-2.77A.647.647,0,0,0,13.246,9.635Z" transform="translate(5.183 5.182)" fill="#fff"/>
</svg>
