<svg id="Group_955" data-name="Group 955" xmlns="http://www.w3.org/2000/svg" width="24" height="24" viewBox="0 0 24 24">
  <g id="Ellipse_84" data-name="Ellipse 84" fill="#00bbb4" stroke="#00bbb4" stroke-width="1">
    <circle cx="12" cy="12" r="12" stroke="none"/>
    <circle cx="12" cy="12" r="11.5" fill="none"/>
  </g>
  <path id="Icon_awesome-linkedin-in" data-name="Icon awesome-linkedin-in" d="M3.052,13.635H.225v-9.1H3.052ZM1.637,3.29A1.645,1.645,0,1,1,3.274,1.638,1.651,1.651,0,0,1,1.637,3.29ZM13.631,13.635H10.811V9.2c0-1.056-.021-2.41-1.47-2.41-1.47,0-1.695,1.147-1.695,2.334v4.507H4.823v-9.1H7.534V5.774h.04A2.97,2.97,0,0,1,10.248,4.3c2.861,0,3.387,1.884,3.387,4.331v5Z" transform="translate(5.183 5.182)" fill="#fff"/>
</svg>
