<svg id="Group_953" data-name="Group 953" xmlns="http://www.w3.org/2000/svg" width="24" height="24" viewBox="0 0 24 24">
  <g id="Ellipse_86" data-name="Ellipse 86" fill="#00bbb4" stroke="#00bbb4" stroke-width="1">
    <circle cx="12" cy="12" r="12" stroke="none"/>
    <circle cx="12" cy="12" r="11.5" fill="none"/>
  </g>
  <g id="Icon_ionic-ios-mail" data-name="Icon ionic-ios-mail" transform="translate(5.658 7.42)">
    <path id="Path_220" data-name="Path 220" d="M16.056,10.333,12.749,13.7a.059.059,0,0,0,0,.086l2.314,2.465a.4.4,0,0,1,0,.565.4.4,0,0,1-.565,0l-2.305-2.456a.063.063,0,0,0-.089,0l-.562.572a2.475,2.475,0,0,1-1.764.744,2.524,2.524,0,0,1-1.8-.765l-.541-.55a.063.063,0,0,0-.089,0L5.041,16.817a.4.4,0,0,1-.565,0,.4.4,0,0,1,0-.565l2.314-2.465a.065.065,0,0,0,0-.086l-3.31-3.368a.061.061,0,0,0-.1.043v6.74a.986.986,0,0,0,.983.983H15.177a.986.986,0,0,0,.983-.983v-6.74A.061.061,0,0,0,16.056,10.333Z" transform="translate(-3.375 -9.248)" fill="#fff"/>
    <path id="Path_221" data-name="Path 221" d="M10.246,13.5a1.671,1.671,0,0,0,1.2-.5L16.27,8.09a.966.966,0,0,0-.609-.215H4.834a.96.96,0,0,0-.609.215L9.048,13A1.671,1.671,0,0,0,10.246,13.5Z" transform="translate(-3.854 -7.875)" fill="#fff"/>
  </g>
</svg>
