<svg xmlns="http://www.w3.org/2000/svg" width="23" height="22" viewBox="0 0 23 22">
  <g id="instagram" transform="translate(-321 -41)">
    <ellipse id="Ellipse_63" data-name="Ellipse 63" cx="11.5" cy="11" rx="11.5" ry="11" transform="translate(321 41)" fill="#fff"/>
    <path id="Icon_awesome-instagram" data-name="Icon awesome-instagram" d="M6.775,5.54A3.475,3.475,0,1,0,10.25,9.015,3.47,3.47,0,0,0,6.775,5.54Zm0,5.735A2.259,2.259,0,1,1,9.034,9.015a2.263,2.263,0,0,1-2.259,2.259ZM11.2,5.4a.811.811,0,1,1-.811-.811A.809.809,0,0,1,11.2,5.4Zm2.3.823A4.011,4.011,0,0,0,12.41,3.38,4.038,4.038,0,0,0,9.57,2.285c-1.119-.064-4.473-.064-5.592,0a4.032,4.032,0,0,0-2.84,1.092A4.024,4.024,0,0,0,.042,6.217c-.064,1.119-.064,4.473,0,5.592a4.011,4.011,0,0,0,1.095,2.84,4.043,4.043,0,0,0,2.84,1.095c1.119.064,4.473.064,5.592,0a4.011,4.011,0,0,0,2.84-1.095A4.038,4.038,0,0,0,13.5,11.81c.064-1.119.064-4.47,0-5.589Zm-1.446,6.79A2.287,2.287,0,0,1,10.77,14.3a14.938,14.938,0,0,1-4,.272,15.055,15.055,0,0,1-4-.272A2.287,2.287,0,0,1,1.491,13.01a14.938,14.938,0,0,1-.272-4,15.055,15.055,0,0,1,.272-4A2.287,2.287,0,0,1,2.78,3.731a14.938,14.938,0,0,1,4-.272,15.055,15.055,0,0,1,4,.272A2.287,2.287,0,0,1,12.059,5.02a14.938,14.938,0,0,1,.272,4A14.929,14.929,0,0,1,12.059,13.01Z" transform="translate(325.667 42.681)" fill="#00bbb4"/>
  </g>
</svg>
