<svg xmlns="http://www.w3.org/2000/svg" width="550" height="176.144" viewBox="0 0 550 176.144">
  <g id="our-services" transform="translate(-556.896 -1368.856)">
    <path id="Path_3748" data-name="Path 3748" d="M54.759,37.18c28.652,0,50.107-20.486,50.245-49.83v-1.107C105.142-40.333,87.01-62.48,55.589-62.48H54.62C24.446-62.48,4.652-41.3,3.96-13.757v1.107c0,29.206,21.731,49.83,50.107,49.83Zm-.277-19.1c-17.994,0-29.206-13.7-29.206-30.313v-.692c0-17.025,11.489-30.175,29.483-30.175,17.856,0,28.514,12.734,28.652,30.036v.831C83.411,4.237,72.615,18.078,54.482,18.078Zm107.411,19.1c23.669,0,42.079-15.364,42.079-40.694V-61.1H183.348V-6.145c.138,16.748-9.274,24.223-21.455,24.223-12.042,0-21.178-7.751-21.039-24.223V-61.1H119.815V-3.515c0,25.469,18.409,40.694,41.248,40.694ZM297.264,12.542c-.969-8.028-2.353-15.779-9.551-19.1,8.443-5.121,13.15-13.426,13.15-24.777v-.969c0-18.686-13.842-28.791-35.988-28.791H223.627V35.8h20.9V-.746h16.887c11.9.277,15.5,7.2,16.472,16.748.83,10.8,3.322,15.5,6.506,19.794h21.593C301.832,30.951,298.648,24.169,297.264,12.542ZM244.528-44.209h19.24c10.52,0,16.887,4.429,16.887,13.426v.277c0,8.582-5.26,13.7-16.472,13.7H244.528Z" transform="translate(554.936 1433.336)" fill="#136865" stroke="#136865" stroke-width="4"/>
    <text id="Services" transform="translate(590.896 1425)" fill="#fff" font-size="100" font-family="BDMegatoya-ExtraBold, BD Megatoya" font-weight="800"><tspan x="0" y="95">SERVICES</tspan></text>
  </g>
</svg>
